<svg width="15" height="16" viewBox="0 0 15 16" fill="none" xmlns="http://www.w3.org/2000/svg">
<path fill-rule="evenodd" clip-rule="evenodd" d="M14.628 8.16897C14.628 7.64262 14.5809 7.13607 14.4927 6.65015H7.5V9.52196H11.4963C11.3239 10.4501 10.8008 11.2371 10.0146 11.7635V13.6263H12.4137C13.8178 12.3336 14.628 10.4303 14.628 8.16897Z" fill="#3D82F0"/>
<path fill-rule="evenodd" clip-rule="evenodd" d="M7.50007 15.4251C9.50482 15.4251 11.1853 14.7602 12.4138 13.6266L10.0147 11.763C9.34972 12.2085 8.49914 12.4716 7.50007 12.4716C5.56628 12.4716 3.92949 11.1657 3.34539 9.41089H0.864624V11.3348C2.08644 13.7611 4.59773 15.4251 7.50007 15.4251Z" fill="#31A752"/>
<path fill-rule="evenodd" clip-rule="evenodd" d="M3.34524 9.41091C3.19674 8.96541 3.11259 8.48939 3.11259 8.00016C3.11259 7.51094 3.19674 7.03492 3.34524 6.58942V4.66553H0.864473C0.36205 5.6679 0.0749512 6.80227 0.0749512 8.00016C0.0749512 9.19806 0.36205 10.3324 0.864473 11.3348L3.34524 9.41091Z" fill="#F9BA00"/>
<path fill-rule="evenodd" clip-rule="evenodd" d="M7.50007 3.52844C8.5899 3.52844 9.56917 3.90299 10.3381 4.63889L12.4682 2.50957C11.182 1.31085 9.50152 0.574951 7.50007 0.574951C4.59774 0.574951 2.08644 2.23897 0.864624 4.66611L3.34539 6.58918C3.92949 4.83441 5.56628 3.52844 7.50007 3.52844Z" fill="#E64234"/>
</svg>
