<svg width="18" height="21" viewBox="0 0 18 21" fill="none" xmlns="http://www.w3.org/2000/svg">
<path d="M18 4.31251C18 6.16209 16.43 7.66667 14.5 7.66667C12.57 7.66667 11 6.16209 11 4.31251C11 2.46292 12.57 0.958338 14.5 0.958338C16.43 0.958338 18 2.46292 18 4.31251ZM16 9.38209C15.5 9.50667 15 9.58334 14.5 9.58334C13.0421 9.58081 11.6447 9.02467 10.6138 8.03675C9.58295 7.04883 9.00264 5.70964 9 4.31251C9 2.90376 9.58 1.62917 10.5 0.680422C10.3185 0.467232 10.0897 0.295526 9.83021 0.177818C9.57072 0.0601097 9.28709 -0.000636817 9 5.03382e-06C7.9 5.03382e-06 7 0.862505 7 1.91667V2.19459C4.03 3.03792 2 5.65417 2 8.62501V14.375L0 16.2917V17.25H18V16.2917L16 14.375V9.38209ZM9 20.125C10.11 20.125 11 19.2721 11 18.2083H7C7 18.7167 7.21071 19.2042 7.58579 19.5636C7.96086 19.9231 8.46957 20.125 9 20.125Z" fill="white"/>
</svg>
