<svg width="120" height="120" viewBox="0 0 120 120" fill="none" xmlns="http://www.w3.org/2000/svg">
<path fill-rule="evenodd" clip-rule="evenodd" d="M60 15C48.0653 15 36.6193 19.7411 28.1802 28.1802C19.7411 36.6193 15 48.0653 15 60C15 71.9347 19.7411 83.3807 28.1802 91.8198C36.6193 100.259 48.0653 105 60 105H82.5C89.49 105 92.985 105 95.74 103.86C97.5605 103.106 99.2146 102.001 100.608 100.608C102.001 99.2146 103.106 97.5605 103.86 95.74C105 92.985 105 89.49 105 82.5V60C105 48.0653 100.259 36.6193 91.8198 28.1802C83.3807 19.7411 71.9347 15 60 15ZM40 55C40 53.6739 40.5268 52.4021 41.4645 51.4645C42.4021 50.5268 43.6739 50 45 50H75C76.3261 50 77.5979 50.5268 78.5355 51.4645C79.4732 52.4021 80 53.6739 80 55C80 56.3261 79.4732 57.5979 78.5355 58.5355C77.5979 59.4732 76.3261 60 75 60H45C43.6739 60 42.4021 59.4732 41.4645 58.5355C40.5268 57.5979 40 56.3261 40 55ZM55 75C55 73.6739 55.5268 72.4021 56.4645 71.4645C57.4021 70.5268 58.6739 70 60 70H75C76.3261 70 77.5979 70.5268 78.5355 71.4645C79.4732 72.4021 80 73.6739 80 75C80 76.3261 79.4732 77.5979 78.5355 78.5355C77.5979 79.4732 76.3261 80 75 80H60C58.6739 80 57.4021 79.4732 56.4645 78.5355C55.5268 77.5979 55 76.3261 55 75Z" fill="#3B6DFF"/>
</svg>
