<svg width="18" height="21" viewBox="0 0 18 21" fill="none" xmlns="http://www.w3.org/2000/svg">
<path d="M16 9.38209C16 7.74868 15.7101 6.42022 15 5C14.2899 3.57978 12.5 2.5 11 2.19459C11 1.5 10.772 1 10.5 0.680422C10.3185 0.467232 10.0897 0.295526 9.83021 0.177818C9.57072 0.0601097 9.28709 -0.000636817 9 5.03382e-06C7.9 5.03382e-06 7 0.862505 7 1.91667V2.19459C4.03 3.03792 2 5.65417 2 8.62501V12.375L0 16.2917V17.25H18V16.2917L16 12.375V9.38209ZM9 20.125C10.11 20.125 11 19.2721 11 18.2083H7C7 18.7167 7.21071 19.2042 7.58579 19.5636C7.96086 19.9231 8.46957 20.125 9 20.125Z" fill="white"/>
</svg>
