<svg width="29" height="30" viewBox="0 0 29 30" fill="none" xmlns="http://www.w3.org/2000/svg">
<path d="M3.61111 29.6208C2.75556 29.6208 2.02341 29.3035 1.41467 28.6688C0.805926 28.0341 0.501037 27.2701 0.5 26.377V3.67033C0.5 2.77828 0.804889 2.0149 1.41467 1.38019C2.02444 0.745489 2.75659 0.427595 3.61111 0.426514H25.3889C26.2444 0.426514 26.9771 0.744407 27.5869 1.38019C28.1967 2.01598 28.501 2.77936 28.5 3.67033V26.377C28.5 27.2691 28.1956 28.033 27.5869 28.6688C26.9781 29.3046 26.2455 29.6219 25.3889 29.6208H3.61111ZM5.16667 23.1332H23.8333L18 15.0237L13.3333 21.5113L9.83333 16.6456L5.16667 23.1332Z" fill="#3B6DFF"/>
</svg>
