<svg width="147" height="143" viewBox="0 0 147 143" fill="none" xmlns="http://www.w3.org/2000/svg">
<rect x="0.920654" width="142.105" height="142.105" rx="71.0524" fill="#CBD8FF"/>
<rect x="103.415" y="95.7466" width="42.6314" height="42.6314" rx="21.3157" fill="#3B6DFF"/>
<path d="M124.731 108.542C125.014 108.542 125.285 108.66 125.484 108.868C125.684 109.076 125.797 109.359 125.797 109.654V115.951H131.836C132.119 115.951 132.39 116.068 132.59 116.276C132.79 116.485 132.902 116.767 132.902 117.062C132.902 117.357 132.79 117.639 132.59 117.848C132.39 118.056 132.119 118.173 131.836 118.173H125.797V124.47C125.797 124.765 125.684 125.048 125.484 125.256C125.285 125.465 125.014 125.582 124.731 125.582C124.448 125.582 124.177 125.465 123.977 125.256C123.777 125.048 123.665 124.765 123.665 124.47V118.173H117.626C117.343 118.173 117.072 118.056 116.872 117.848C116.672 117.639 116.56 117.357 116.56 117.062C116.56 116.767 116.672 116.485 116.872 116.276C117.072 116.068 117.343 115.951 117.626 115.951H123.665V109.654C123.665 109.359 123.777 109.076 123.977 108.868C124.177 108.66 124.448 108.542 124.731 108.542Z" fill="white"/>
<path d="M71.9207 71C76.2525 71 80.407 69.2616 83.4701 66.1673C86.5332 63.0729 88.254 58.8761 88.254 54.5C88.254 50.1239 86.5332 45.9271 83.4701 42.8327C80.407 39.7384 76.2525 38 71.9207 38C67.5888 38 63.4343 39.7384 60.3712 42.8327C57.3082 45.9271 55.5873 50.1239 55.5873 54.5C55.5873 58.8761 57.3082 63.0729 60.3712 66.1673C63.4343 69.2616 67.5888 71 71.9207 71ZM52.0873 75.7143C49.9214 75.7143 47.8442 76.5835 46.3126 78.1307C44.7811 79.6778 43.9207 81.7763 43.9207 83.9643V85.1429C43.9207 90.7835 47.4743 95.5544 52.519 98.7978C57.5917 102.06 64.4587 104 71.9207 104C79.3827 104 86.2473 102.06 91.3223 98.7978C96.367 95.5544 99.9207 90.7835 99.9207 85.1429V83.9643C99.9207 81.7763 99.0602 79.6778 97.5287 78.1307C95.9971 76.5835 93.9199 75.7143 91.754 75.7143H52.0873Z" fill="#3B6DFF"/>
</svg>
